<svg width="20" height="16" viewBox="0 0 20 16" fill="none" xmlns="http://www.w3.org/2000/svg">
<path d="M19.9961 1.89444C19.2606 2.21524 18.4705 2.43199 17.6399 2.52997C18.4872 2.03056 19.1373 1.23811 19.4438 0.294787C18.6511 0.757776 17.7729 1.09418 16.8383 1.27452C16.0896 0.490734 15.0238 0 13.8435 0C11.5781 0 9.74065 1.80861 9.74065 4.04032C9.74065 4.35591 9.77765 4.66284 9.84635 4.95936C6.43492 4.79029 3.41281 3.18197 1.38868 0.738702C1.03635 1.33695 0.833758 2.03056 0.833758 2.76926C0.833758 4.17037 1.55868 5.40761 2.65883 6.13157C1.98588 6.1099 1.35344 5.92869 0.800287 5.6261V5.67812C0.800287 7.63498 2.21401 9.26759 4.09193 9.63867C3.74664 9.73057 3.38463 9.77913 3.01116 9.77913C2.74691 9.77913 2.48883 9.75485 2.23867 9.70803C2.761 11.312 4.27602 12.4808 6.07202 12.512C4.66711 13.5958 2.89753 14.2417 0.97557 14.2417C0.644381 14.2417 0.317595 14.2226 -0.00390625 14.1853C1.81235 15.3324 3.96861 16 6.28518 16C13.8338 16 17.9605 9.84589 17.9605 4.50851C17.9605 4.3351 17.9561 4.15997 17.9482 3.98656C18.7497 3.41606 19.4456 2.70597 19.9943 1.89704L19.9961 1.89444Z" fill="#789384"/>
</svg>
