<svg width="20" height="12" viewBox="0 0 20 12" fill="none" xmlns="http://www.w3.org/2000/svg">
<path fill-rule="evenodd" clip-rule="evenodd" d="M2.93484 0.0607773H0.746411C0.121147 0.0607773 -0.00390625 0.360904 -0.00390625 0.686042C-0.00390625 1.26129 0.746411 4.1375 3.44755 7.93911C5.26082 10.5277 7.8119 11.9408 10.1254 11.9408C11.5135 11.9408 11.6885 11.6282 11.6885 11.0904V9.12711C11.6885 8.50185 11.8136 8.37679 12.2638 8.37679C12.5889 8.37679 13.1392 8.53936 14.4397 9.78989C15.9278 11.278 16.1654 11.9408 17.0033 11.9408H19.1917C19.817 11.9408 20.1296 11.6282 19.942 11.0154C19.7545 10.3901 19.0416 9.51478 18.1038 8.45183C17.6035 7.83907 16.8282 7.2013 16.6031 6.87616C16.278 6.45098 16.353 6.2634 16.6031 5.90075C16.6031 5.90075 19.2667 2.14916 19.5419 0.861116C19.6794 0.398421 19.5419 0.0607773 18.8791 0.0607773H16.6907C16.486 0.0485388 16.2829 0.102814 16.1116 0.215503C15.9403 0.328191 15.81 0.493249 15.7403 0.686042C15.7403 0.686042 14.6148 3.38718 13.0516 5.15043C12.5389 5.66315 12.3013 5.82572 12.0262 5.82572C11.9011 5.82572 11.6885 5.66315 11.6885 5.20045V0.861116C11.6885 0.310884 11.526 0.0607773 11.0633 0.0607773H7.62432C7.27417 0.0607773 7.06158 0.310883 7.06158 0.560989C7.06158 1.08621 7.86192 1.21126 7.93695 2.68689V5.91325C7.93695 6.62605 7.8119 6.75111 7.53678 6.75111C6.78647 6.75111 4.9857 4.02495 3.91025 0.911137C3.71016 0.310883 3.49757 0.0607773 2.93484 0.0607773Z" fill="#789384"/>
</svg>
