<svg width="20" height="14" viewBox="0 0 20 14" fill="none" xmlns="http://www.w3.org/2000/svg">
<path d="M19.584 2.18946C19.3536 1.33264 18.678 0.657228 17.8213 0.426515C16.2563 -0.00170898 9.99587 -0.00170898 9.99587 -0.00170898C9.99587 -0.00170898 3.73572 -0.00170898 2.17066 0.410279C1.33045 0.640748 0.638429 1.33277 0.40796 2.18946C-0.00390625 3.7544 -0.00390625 6.99989 -0.00390625 6.99989C-0.00390625 6.99989 -0.00390625 10.2617 0.40796 11.8103C0.638673 12.667 1.31397 13.3424 2.17078 13.5731C3.7522 14.0015 9.99611 14.0015 9.99611 14.0015C9.99611 14.0015 16.2563 14.0015 17.8213 13.5895C18.6781 13.3589 19.3536 12.6835 19.5843 11.8268C19.996 10.2617 19.996 7.01637 19.996 7.01637C19.996 7.01637 20.0125 3.7544 19.584 2.18946ZM8.0027 9.99819V4.0016L13.2085 6.99989L8.0027 9.99819Z" fill="#789384"/>
</svg>
